<?xml version="1.0" encoding="UTF-8"?> <svg xmlns="http://www.w3.org/2000/svg" width="300" height="284" viewBox="0 0 300 284" fill="none"><rect x="0.5" y="1.4834" width="299" height="281.983" rx="23.5" fill="white"></rect><path d="M80.8584 118.011C79.9712 118.011 79.2483 118.311 78.6677 118.899C78.0872 119.487 77.8025 120.241 77.8025 121.14V136.152C74.8232 133.688 71.3839 132.446 67.4736 132.446C62.928 132.446 59.0396 134.088 55.8194 137.383C52.5992 140.667 51 144.639 51 149.299C51 153.959 52.6101 157.92 55.8194 161.215C59.0396 164.499 62.9171 166.152 67.4736 166.152C72.0301 166.152 75.8637 164.51 79.1278 161.215C82.348 157.964 83.9472 153.992 83.9472 149.299V121.14C83.9472 120.241 83.6515 119.487 83.049 118.899C82.4466 118.311 81.7237 118.011 80.8584 118.011ZM76.9919 153.382C76.4552 154.658 75.7213 155.778 74.7903 156.733C73.8593 157.698 72.764 158.452 71.5153 159.018C70.2557 159.584 68.9194 159.861 67.4846 159.861C66.0497 159.861 64.6805 159.584 63.4209 159.018C62.1613 158.452 61.0769 157.698 60.1569 156.744C59.2368 155.79 58.5029 154.669 57.9662 153.393C57.4295 152.106 57.1557 150.741 57.1557 149.299C57.1557 147.857 57.4295 146.492 57.9662 145.205C58.5029 143.918 59.2368 142.809 60.1569 141.854C61.0769 140.9 62.1723 140.146 63.4209 139.58C64.6805 139.014 66.0278 138.737 67.4846 138.737C68.9413 138.737 70.2557 139.014 71.5153 139.58C72.7749 140.146 73.8593 140.9 74.7903 141.865C75.7213 142.831 76.4552 143.951 76.9919 145.216C77.5286 146.492 77.8025 147.846 77.8025 149.288C77.8025 150.73 77.5286 152.095 76.9919 153.36V153.382ZM215.517 137.394C212.264 134.11 208.375 132.457 203.863 132.457C199.35 132.457 195.429 134.099 192.208 137.394C188.988 140.678 187.389 144.65 187.389 149.31C187.389 153.97 188.999 157.931 192.208 161.226C195.429 164.51 199.306 166.163 203.863 166.163C208.003 166.163 211.585 164.799 214.63 162.069C215.221 161.448 215.517 160.694 215.517 159.817C215.517 158.941 215.232 158.164 214.652 157.576C214.071 156.988 213.337 156.688 212.461 156.688C211.694 156.71 211.015 156.966 210.435 157.476C209.514 158.275 208.518 158.885 207.433 159.284C206.349 159.684 205.166 159.884 203.874 159.884C202.734 159.884 201.639 159.706 200.599 159.34C199.558 158.974 198.583 158.475 197.718 157.82C196.842 157.165 196.086 156.389 195.44 155.468C194.793 154.558 194.3 153.548 193.972 152.439H217.269C218.135 152.439 218.858 152.139 219.46 151.551C220.062 150.963 220.358 150.209 220.358 149.31C220.358 146.98 219.953 144.817 219.153 142.831C218.354 140.834 217.138 139.025 215.539 137.405L215.517 137.394ZM193.95 146.181C194.268 145.083 194.75 144.073 195.396 143.152C196.042 142.243 196.809 141.455 197.685 140.8C198.572 140.146 199.536 139.646 200.599 139.28C201.661 138.914 202.745 138.737 203.863 138.737C204.98 138.737 206.064 138.914 207.116 139.28C208.167 139.646 209.131 140.146 209.996 140.8C210.873 141.455 211.639 142.232 212.286 143.152C212.943 144.062 213.436 145.072 213.775 146.181H193.95ZM247.785 134.565C247.237 134.021 246.547 133.6 245.715 133.289C244.882 132.978 243.973 132.768 242.976 132.646C241.991 132.524 241.06 132.468 240.194 132.468C238.234 132.468 236.394 132.79 234.663 133.433C232.932 134.077 231.333 134.998 229.865 136.196V135.597C229.865 134.731 229.57 133.999 228.967 133.389C228.365 132.779 227.653 132.468 226.81 132.468C225.966 132.468 225.221 132.779 224.619 133.389C224.016 133.999 223.721 134.742 223.721 135.597V163.035C223.721 163.9 224.016 164.632 224.619 165.242C225.221 165.853 225.944 166.163 226.81 166.163C227.675 166.163 228.376 165.853 228.967 165.242C229.57 164.632 229.865 163.889 229.865 163.035V149.31C229.865 147.846 230.139 146.47 230.676 145.183C231.213 143.896 231.947 142.786 232.878 141.832C233.809 140.878 234.904 140.124 236.153 139.58C237.412 139.025 238.748 138.748 240.183 138.748C241.618 138.748 242.976 139.003 244.214 139.502C244.707 139.724 245.134 139.835 245.507 139.835C245.934 139.835 246.339 139.757 246.711 139.591C247.084 139.425 247.412 139.203 247.686 138.914C247.96 138.626 248.179 138.293 248.344 137.905C248.508 137.527 248.595 137.117 248.595 136.673C248.595 135.808 248.322 135.109 247.774 134.565H247.785ZM115.569 137.394C112.316 134.11 108.428 132.457 103.915 132.457C99.4021 132.457 95.4809 134.099 92.2606 137.394C89.0404 140.678 87.4413 144.65 87.4413 149.31C87.4413 153.97 89.0513 157.931 92.2606 161.226C95.4809 164.51 99.3583 166.163 103.915 166.163C108.471 166.163 112.305 164.521 115.569 161.226C118.789 157.975 120.388 154.003 120.388 149.31C120.367 146.98 119.961 144.828 119.173 142.842C118.373 140.856 117.179 139.036 115.569 137.394ZM113.433 153.382C112.896 154.658 112.163 155.778 111.232 156.733C110.301 157.698 109.205 158.452 107.957 159.018C106.708 159.584 105.361 159.861 103.926 159.861C102.491 159.861 101.122 159.584 99.8622 159.018C98.6025 158.452 97.5182 157.698 96.5981 156.744C95.6781 155.79 94.9442 154.669 94.4075 153.393C93.8708 152.106 93.5969 150.741 93.5969 149.299C93.5969 147.857 93.8708 146.492 94.4075 145.205C94.9442 143.918 95.6781 142.809 96.5981 141.854C97.5182 140.9 98.6135 140.146 99.8622 139.58C101.122 139.014 102.469 138.737 103.926 138.737C105.383 138.737 106.697 139.014 107.957 139.58C109.216 140.146 110.301 140.9 111.232 141.865C112.163 142.831 112.896 143.951 113.433 145.216C113.97 146.492 114.244 147.846 114.244 149.288C114.244 150.73 113.97 152.095 113.433 153.36V153.382ZM184.059 135.586C184.059 135.164 183.972 134.765 183.807 134.387C183.643 134.01 183.424 133.666 183.15 133.378C182.876 133.089 182.548 132.856 182.175 132.701C181.803 132.546 181.398 132.457 180.97 132.457C180.357 132.457 179.809 132.612 179.327 132.934L161.737 144.639V121.162C161.737 120.275 161.441 119.531 160.839 118.921C160.236 118.311 159.524 118 158.681 118C157.837 118 157.093 118.311 156.49 118.921C155.888 119.531 155.592 120.275 155.592 121.162V162.99C155.592 163.856 155.888 164.599 156.49 165.22C157.093 165.842 157.815 166.152 158.681 166.152C159.546 166.152 160.247 165.842 160.839 165.22C161.441 164.599 161.737 163.856 161.737 162.99V152.128L165.329 149.721L178.922 165.331C179.47 165.875 180.16 166.141 180.981 166.141C181.409 166.141 181.814 166.063 182.186 165.897C182.559 165.742 182.887 165.509 183.161 165.22C183.435 164.932 183.654 164.599 183.818 164.211C183.983 163.833 184.07 163.423 184.07 163.012C184.07 162.191 183.785 161.459 183.216 160.816L170.565 146.248L182.887 138.06C183.676 137.516 184.059 136.684 184.059 135.564V135.586ZM132.985 141.832C133.927 140.878 135.022 140.124 136.281 139.58C137.541 139.025 138.877 138.748 140.312 138.748C141.605 138.748 142.799 138.97 143.905 139.413C145 139.857 146.052 140.512 147.048 141.366C147.64 141.843 148.308 142.087 149.053 142.087C149.94 142.087 150.663 141.788 151.244 141.189C151.824 140.59 152.109 139.835 152.109 138.936C152.109 138.038 151.758 137.206 151.046 136.562C148.023 133.833 144.442 132.468 140.312 132.468C135.767 132.468 131.878 134.11 128.658 137.405C125.438 140.689 123.839 144.661 123.839 149.321C123.839 153.981 125.449 157.942 128.658 161.237C131.878 164.521 135.756 166.174 140.312 166.174C144.431 166.174 148.012 164.81 151.046 162.08C151.693 161.415 152.021 160.649 152.021 159.762C152.021 158.874 151.736 158.108 151.156 157.52C150.575 156.932 149.842 156.633 148.965 156.633C148.22 156.655 147.574 156.877 147.027 157.298C146.041 158.164 145.011 158.807 143.905 159.24C142.81 159.673 141.616 159.884 140.312 159.884C138.877 159.884 137.541 159.606 136.281 159.051C135.022 158.497 133.927 157.742 132.985 156.799C132.043 155.856 131.298 154.724 130.761 153.449C130.224 152.162 129.951 150.786 129.951 149.321C129.951 147.857 130.224 146.481 130.761 145.194C131.298 143.907 132.043 142.797 132.985 141.843V141.832Z" fill="#1D63ED"></path><rect x="0.5" y="1.4834" width="299" height="281.983" rx="23.5" stroke="#E1E2E6"></rect></svg> 